<svg xmlns="http://www.w3.org/2000/svg" viewBox="375 1526 924 440">
<path fill="white" fill-rule="nonzero" d="M 995.417969 1540.96875 C 924.28125 1541.019531 862.113281 1586.941406 844.054688 1652.785156 C 826.125 1644.789062 805.648438 1640.566406 784.78125 1640.566406 C 737.925781 1640.589844 695.703125 1661.753906 677.804688 1694.191406 C 667.320312 1686.347656 655.058594 1680.222656 641.953125 1676.285156 C 594.304688 1662.019531 547.015625 1679.390625 536.328125 1715.085938 C 534.363281 1721.703125 533.765625 1728.6875 534.554688 1735.789062 C 524.027344 1732.949219 513.082031 1731.503906 502.074219 1731.5 C 440.6875 1731.5 390.917969 1775.421875 390.917969 1829.597656 C 390.914062 1855.617188 402.625 1880.570312 423.472656 1898.96875 C 444.320312 1917.367188 472.59375 1927.703125 502.074219 1927.703125 C 532.363281 1927.6875 561.332031 1916.761719 582.28125 1897.457031 C 603.636719 1922.117188 640.207031 1937.007812 679.445312 1937.011719 C 715.011719 1936.992188 748.59375 1924.738281 770.535156 1903.769531 C 789.992188 1935.285156 827.398438 1954.910156 868.066406 1954.933594 C 901.238281 1954.917969 932.667969 1941.824219 953.769531 1919.234375 C 974.453125 1931.941406 1000.371094 1938.890625 1027.121094 1938.90625 C 1068.429688 1938.886719 1106.609375 1922.390625 1127.308594 1895.605469 C 1143.820312 1904.839844 1162.828125 1909.738281 1182.21875 1909.757812 C 1240.230469 1909.757812 1287.261719 1867.027344 1287.261719 1814.3125 C 1287.261719 1761.601562 1240.230469 1718.871094 1182.21875 1718.867188 C 1170.609375 1718.890625 1159.078125 1720.660156 1148.109375 1724.109375 C 1150.710938 1713.191406 1152.019531 1702.027344 1152.03125 1690.828125 C 1152.03125 1651.082031 1135.53125 1612.964844 1106.160156 1584.863281 C 1076.789062 1556.757812 1036.960938 1540.96875 995.421875 1540.96875 Z"/>
</svg>
