<svg xmlns="http://www.w3.org/2000/svg" viewBox="1960 410 805 400">
<path fill="white" fill-rule="nonzero" d="M 2274.308594 425.480469 C 2192.390625 425.519531 2123.199219 478.421875 2112.589844 549.121094 C 2102.441406 548.179688 2092.070312 548.289062 2081.78125 549.441406 C 2018.160156 556.601562 1970.941406 601.039062 1976.308594 648.699219 C 1981.671875 696.359375 2037.589844 729.191406 2101.210938 722.03125 C 2105.308594 721.558594 2109.378906 720.941406 2113.421875 720.148438 C 2120.210938 766.789062 2175.480469 798.410156 2237.988281 791.390625 C 2259.898438 788.929688 2280.828125 781.820312 2298.320312 770.929688 C 2322.320312 787.378906 2355.308594 794.671875 2388.710938 790.910156 C 2406.851562 788.871094 2424.371094 783.640625 2439.851562 775.671875 C 2463.640625 790.910156 2495.460938 797.53125 2527.609375 793.910156 C 2569.441406 789.191406 2606.070312 767.851562 2623.289062 738.160156 C 2625.019531 738.429688 2626.75 738.648438 2628.5 738.851562 C 2692.171875 745.480469 2747.808594 712.191406 2752.789062 664.488281 C 2755.171875 641.589844 2745.308594 618.351562 2725.378906 599.898438 C 2705.441406 581.449219 2677.058594 569.300781 2646.480469 566.109375 C 2614.480469 562.800781 2582.890625 569.601562 2559.28125 584.890625 C 2550.449219 560.480469 2520.878906 543.53125 2487.128906 543.53125 C 2468.648438 543.550781 2450.839844 548.679688 2437.121094 557.949219 C 2431.359375 483.390625 2360.179688 425.480469 2274.308594 425.480469 Z"/>
</svg>
