<svg xmlns="http://www.w3.org/2000/svg" viewBox="910 410 625 345">
<path fill="white" fill-rule="nonzero" d="M 1197.328125 420.808594 C 1127.449219 420.839844 1069.171875 474.238281 1063.058594 543.859375 C 1051.921875 539.871094 1040.179688 537.828125 1028.351562 537.828125 C 971.414062 537.828125 925.253906 583.988281 925.253906 640.929688 C 925.253906 697.859375 971.414062 744.019531 1028.351562 744.019531 C 1055.070312 744 1080.75 733.609375 1099.949219 715.03125 C 1117.179688 731.871094 1140.308594 741.320312 1164.398438 741.339844 C 1188.25 741.320312 1211.179688 732.070312 1228.359375 715.53125 C 1245.398438 731.238281 1267.730469 739.960938 1290.910156 739.960938 C 1317.148438 739.941406 1342.140625 728.761719 1359.640625 709.199219 C 1377.160156 730.378906 1403.210938 742.640625 1430.691406 742.660156 C 1455.171875 742.660156 1478.648438 732.929688 1495.960938 715.621094 C 1513.269531 698.308594 1523 674.828125 1522.988281 650.351562 C 1522.960938 601.050781 1484.191406 560.46875 1434.941406 558.199219 C 1434.949219 557.851562 1434.960938 557.511719 1434.96875 557.160156 C 1434.96875 535.910156 1426.53125 515.519531 1411.5 500.488281 C 1396.46875 485.460938 1376.089844 477.019531 1354.828125 477.019531 C 1340.488281 477.019531 1326.410156 480.878906 1314.070312 488.191406 C 1289.980469 446.5 1245.480469 420.820312 1197.320312 420.808594 Z"/>
</svg>
