<svg xmlns="http://www.w3.org/2000/svg" viewBox="1500 938 658 424">
<path fill="white" fill-rule="nonzero" d="M 1896.339844 950.601562 C 1822.519531 950.640625 1757.679688 999.628906 1737.46875 1070.621094 C 1722.128906 1060.140625 1703.980469 1054.53125 1685.398438 1054.53125 C 1660.921875 1054.53125 1637.441406 1064.25 1620.128906 1081.570312 C 1602.820312 1098.878906 1593.089844 1122.359375 1593.089844 1146.839844 C 1593.101562 1153.519531 1593.839844 1160.191406 1595.28125 1166.710938 C 1549.761719 1173.148438 1515.910156 1212.109375 1515.898438 1258.078125 C 1515.898438 1309.058594 1557.230469 1350.390625 1608.199219 1350.390625 C 1637.671875 1350.359375 1665.359375 1336.269531 1682.71875 1312.449219 C 1700.191406 1334.910156 1727.058594 1348.039062 1755.511719 1348.058594 C 1787.910156 1348.039062 1817.921875 1331.039062 1834.589844 1303.269531 C 1852.109375 1323.398438 1877.480469 1334.96875 1904.160156 1335 C 1930.488281 1334.980469 1955.558594 1323.710938 1973.070312 1304.039062 C 1989.699219 1332 2019.820312 1349.140625 2052.359375 1349.148438 C 2103.328125 1349.148438 2144.660156 1307.820312 2144.660156 1256.839844 C 2144.628906 1206.628906 2104.46875 1165.640625 2054.269531 1164.601562 C 2059.128906 1148.820312 2061.609375 1132.390625 2061.609375 1115.871094 C 2061.609375 1024.601562 1987.609375 950.601562 1896.339844 950.601562 Z"/>
</svg>
