<svg xmlns="http://www.w3.org/2000/svg" viewBox="405 948 758 402">
<path fill="white" fill-rule="nonzero" d="M 802.992188 962.28125 C 772.515625 961.230469 742.054688 976.210938 718.238281 1003.949219 C 700.25 992.101562 678.308594 984.378906 655.25 981.78125 C 624.699219 978.339844 594.375 984.128906 570.953125 997.890625 C 547.527344 1011.640625 532.917969 1032.21875 530.34375 1055.109375 C 529.808594 1060.179688 529.867188 1065.308594 530.527344 1070.441406 C 472.617188 1069.660156 425.695312 1101.421875 420.804688 1144.691406 C 418.226562 1167.578125 427.890625 1190.890625 447.671875 1209.511719 C 467.449219 1228.128906 495.726562 1240.519531 526.277344 1243.960938 C 534.039062 1244.828125 541.851562 1245.109375 549.585938 1244.800781 C 568.304688 1300.109375 633.164062 1338.71875 707.410156 1338.75 C 769.855469 1338.71875 826.804688 1311.261719 854.089844 1268.019531 C 866.949219 1275.140625 882.519531 1278.980469 898.511719 1278.980469 C 921.355469 1278.96875 942.933594 1271.140625 957.101562 1257.710938 C 980.566406 1272.238281 1011.421875 1278.601562 1042.628906 1275.351562 C 1073.199219 1272.171875 1101.578125 1260.011719 1121.519531 1241.558594 C 1141.449219 1223.109375 1151.308594 1199.878906 1148.921875 1176.96875 C 1144.949219 1139.03125 1108.390625 1108.988281 1058.808594 1102.921875 C 1048.269531 1064.808594 1006.269531 1034.808594 955.449219 1029.070312 C 934.394531 1026.71875 913.261719 1028.738281 894.347656 1034.898438 C 877.640625 994.21875 846.90625 967.621094 811.230469 962.960938 C 808.507812 962.609375 805.765625 962.378906 803.015625 962.28125 Z"/>
</svg>
